<svg width="12" height="10" viewBox="0 0 12 10" fill="none" xmlns="http://www.w3.org/2000/svg">
<path d="M0 0.125V7.75C0 8.21413 0.184375 8.65925 0.512563 8.98744C0.840752 9.31563 1.28587 9.5 1.75 9.5H10.25C10.7141 9.5 11.1592 9.31563 11.4874 8.98744C11.8156 8.65925 12 8.21413 12 7.75V0.125C12 0.0918479 11.9868 0.0600536 11.9634 0.0366116C11.9399 0.0131695 11.9082 0 11.875 0H0.125C0.0918479 0 0.0600536 0.0131695 0.0366116 0.0366116C0.0131695 0.0600536 0 0.0918479 0 0.125ZM8.34375 4.86344L6.35344 6.85344C6.25968 6.94713 6.13255 6.99977 6 6.99977C5.86745 6.99977 5.74032 6.94713 5.64656 6.85344L3.65625 4.86344C3.46594 4.67313 3.44844 4.36344 3.62969 4.16406C3.67519 4.11394 3.73039 4.07358 3.79195 4.04543C3.85351 4.01727 3.92014 4.00191 3.98781 4.00028C4.05549 3.99864 4.12279 4.01076 4.18563 4.03591C4.24848 4.06105 4.30557 4.0987 4.35344 4.14656L5.5 5.29281V2.01406C5.5 1.745 5.70687 1.51406 5.97594 1.50063C6.04354 1.49737 6.1111 1.50787 6.17453 1.5315C6.23796 1.55512 6.29593 1.59138 6.34492 1.63807C6.39392 1.68476 6.43293 1.74091 6.45959 1.80313C6.48625 1.86534 6.49999 1.93232 6.5 2V5.29281L7.64656 4.14656C7.69443 4.0987 7.75152 4.06105 7.81437 4.03591C7.87721 4.01076 7.94451 3.99864 8.01219 4.00028C8.07986 4.00191 8.14649 4.01727 8.20805 4.04543C8.26961 4.07358 8.32481 4.11394 8.37031 4.16406C8.55156 4.36312 8.53406 4.67313 8.34375 4.86344Z" fill="black"/>
</svg>
