<svg width="10" height="14" viewBox="0 0 10 14" fill="none" xmlns="http://www.w3.org/2000/svg">
<path d="M10 4C10.0002 3.6493 9.9081 3.30473 9.73306 3.00084C9.55801 2.69695 9.30614 2.44443 9.0027 2.26861C8.69926 2.09278 8.35492 1.99984 8.00422 1.9991C7.65353 1.99836 7.3088 2.08985 7.00462 2.26439C6.70044 2.43893 6.4475 2.69038 6.27118 2.99353C6.09485 3.29668 6.00134 3.64086 6.00002 3.99155C5.99869 4.34225 6.08961 4.68713 6.26364 4.9916C6.43768 5.29607 6.68871 5.54942 6.99156 5.72625C6.92 6.635 6.36406 6.8825 4.64781 7.23937C4.09281 7.35437 3.525 7.47219 3.00063 7.67469V3.73094C3.38191 3.5108 3.6799 3.17101 3.84839 2.76425C4.01687 2.3575 4.04643 1.90651 3.93248 1.48125C3.81853 1.05598 3.56744 0.680198 3.21815 0.412179C2.86886 0.144161 2.4409 -0.00111389 2.00063 -0.00111389C1.56036 -0.00111389 1.13239 0.144161 0.783103 0.412179C0.433815 0.680198 0.182725 1.05598 0.0687747 1.48125C-0.0451752 1.90651 -0.0156162 2.3575 0.152867 2.76425C0.321351 3.17101 0.619343 3.5108 1.00063 3.73094V10.2691C0.619922 10.4889 0.322255 10.828 0.153664 11.2341C-0.0149273 11.6401 -0.0450494 12.0903 0.0679562 12.5151C0.180962 12.94 0.430799 13.3158 0.778827 13.5844C1.12686 13.853 1.55368 13.9994 1.9933 14.001C2.43291 14.0027 2.86082 13.8594 3.21084 13.5934C3.56086 13.3274 3.81349 12.9535 3.92966 12.5295C4.04583 12.1055 4.01906 11.6551 3.8535 11.2478C3.68794 10.8406 3.39281 10.4992 3.01375 10.2766C3.08844 9.71406 3.51375 9.51625 5.05313 9.19781C5.91031 9.02062 6.79625 8.83719 7.54625 8.35562C8.4525 7.775 8.93781 6.89375 8.995 5.73406C9.30027 5.55899 9.55393 5.30647 9.73039 5.00201C9.90685 4.69754 9.99985 4.3519 10 4ZM2 0.999999C2.19778 0.999999 2.39112 1.05865 2.55557 1.16853C2.72002 1.27841 2.84819 1.43459 2.92388 1.61732C2.99957 1.80004 3.01937 2.00111 2.98079 2.19509C2.9422 2.38907 2.84696 2.56725 2.70711 2.70711C2.56726 2.84696 2.38907 2.9422 2.19509 2.98078C2.00111 3.01937 1.80004 2.99957 1.61732 2.92388C1.43459 2.84819 1.27841 2.72002 1.16853 2.55557C1.05865 2.39112 1 2.19778 1 2C1 1.73478 1.10536 1.48043 1.29289 1.29289C1.48043 1.10536 1.73478 0.999999 2 0.999999ZM2 13C1.80222 13 1.60888 12.9413 1.44443 12.8315C1.27998 12.7216 1.15181 12.5654 1.07612 12.3827C1.00043 12.2 0.980631 11.9989 1.01922 11.8049C1.0578 11.6109 1.15304 11.4327 1.29289 11.2929C1.43275 11.153 1.61093 11.0578 1.80491 11.0192C1.99889 10.9806 2.19996 11.0004 2.38268 11.0761C2.56541 11.1518 2.72159 11.28 2.83147 11.4444C2.94135 11.6089 3 11.8022 3 12C3 12.2652 2.89464 12.5196 2.70711 12.7071C2.51957 12.8946 2.26522 13 2 13ZM8 5C7.80222 5 7.60888 4.94135 7.44443 4.83147C7.27998 4.72159 7.15181 4.56541 7.07612 4.38268C7.00043 4.19996 6.98063 3.99889 7.01922 3.80491C7.0578 3.61093 7.15304 3.43275 7.29289 3.29289C7.43275 3.15304 7.61093 3.0578 7.80491 3.01921C7.99889 2.98063 8.19996 3.00043 8.38268 3.07612C8.56541 3.15181 8.72159 3.27998 8.83147 3.44443C8.94135 3.60888 9 3.80222 9 4C9 4.26522 8.89464 4.51957 8.70711 4.70711C8.51957 4.89464 8.26522 5 8 5Z" fill="black"/>
</svg>
