<svg width="16" height="16" viewBox="0 0 16 16" fill="none" xmlns="http://www.w3.org/2000/svg">
<path d="M8 0.5C8.99456 0.5 9.94839 0.895088 10.6517 1.59835C11.3549 2.30161 11.75 3.25544 11.75 4.25C11.75 5.24456 11.3549 6.19839 10.6517 6.90165C9.94839 7.60491 8.99456 8 8 8C7.00544 8 6.05161 7.60491 5.34835 6.90165C4.64509 6.19839 4.25 5.24456 4.25 4.25C4.25 3.25544 4.64509 2.30161 5.34835 1.59835C6.05161 0.895088 7.00544 0.5 8 0.5ZM8 8.83333C13 8.83333 15.5 11.5531 15.5 13.625V15.1C15.5 15.3209 15.3209 15.5 15.1 15.5H0.9C0.679086 15.5 0.5 15.3209 0.5 15.1V13.625C0.5 11.5531 3 8.83333 8 8.83333Z" fill="white"/>
</svg>
